<svg width="14" height="14" viewBox="0 0 14 14" fill="none" xmlns="http://www.w3.org/2000/svg">
<path d="M5.74623 0.248396C5.97642 0.0859547 6.25147 -0.000932693 6.53326 -0.000230789C6.81506 0.000471115 7.08966 0.088727 7.31904 0.252313C7.55156 0.422027 7.72792 0.657015 7.82458 0.928557L8.40851 2.721C8.55835 3.17027 8.81066 3.57858 9.14551 3.91367C9.48036 4.24876 9.88858 4.50146 10.3379 4.65182L12.155 5.23929C12.4237 5.3365 12.655 5.51549 12.8165 5.75106C12.978 5.98663 13.0614 6.26689 13.0551 6.55236C13.0487 6.83782 12.9529 7.1141 12.7811 7.34227C12.6093 7.57044 12.3703 7.73898 12.0975 7.82417L10.3014 8.40903C9.85156 8.5586 9.44274 8.81067 9.1072 9.14532C8.77165 9.47997 8.51859 9.88803 8.36801 10.3372L7.77756 12.1493C7.68248 12.4162 7.50651 12.6469 7.27412 12.8093C7.04174 12.9716 6.7645 13.0576 6.48097 13.0551C6.19744 13.0527 5.92172 12.962 5.69217 12.7957C5.46262 12.6293 5.29065 12.3956 5.20019 12.1271L4.6032 10.2994C4.45334 9.86221 4.20619 9.46472 3.88036 9.13684C3.55452 8.80895 3.1585 8.55921 2.72211 8.40642L0.906327 7.82286C0.63931 7.72764 0.408583 7.5517 0.246178 7.31947C0.0837725 7.08724 -0.00225299 6.81023 4.48626e-05 6.52691C0.00234271 6.2436 0.0928497 5.96802 0.259001 5.73845C0.425151 5.50888 0.658702 5.3367 0.927228 5.24582L2.72211 4.66488C3.17419 4.51495 3.58475 4.26108 3.92077 3.92369C4.25678 3.5863 4.50888 3.1748 4.65676 2.7223L5.24722 0.906363C5.34127 0.640043 5.51632 0.410276 5.74623 0.248396Z" fill="#9547A5"/>
</svg>
