<svg width="26" height="26" viewBox="0 0 26 26" fill="none" xmlns="http://www.w3.org/2000/svg">
<path d="M11.4437 0.495148C11.9021 0.171644 12.4499 -0.00139173 13.0111 5.72205e-06C13.5723 0.00140317 14.1191 0.177166 14.5759 0.502949C15.039 0.840936 15.3902 1.30892 15.5827 1.8497L16.7456 5.41936C17.044 6.3141 17.5465 7.12724 18.2134 7.79458C18.8802 8.46192 19.6932 8.96519 20.5881 9.26462L24.2069 10.4346C24.7419 10.6282 25.2027 10.9846 25.5242 11.4538C25.8458 11.9229 26.012 12.481 25.9993 13.0496C25.9867 13.6181 25.7959 14.1683 25.4538 14.6227C25.1117 15.0771 24.6355 15.4127 24.0924 15.5824L20.5153 16.7471C19.6195 17.045 18.8053 17.547 18.1371 18.2135C17.4689 18.8799 16.9649 19.6926 16.665 20.5872L15.4891 24.1959C15.2997 24.7275 14.9493 25.187 14.4865 25.5103C14.0237 25.8336 13.4716 26.0048 12.9069 25.9999C12.3423 25.995 11.7932 25.8144 11.336 25.4832C10.8789 25.1519 10.5364 24.6865 10.3562 24.1517L9.16733 20.5118C8.86888 19.6412 8.37667 18.8496 7.72777 18.1966C7.07887 17.5436 6.29019 17.0462 5.42111 16.7419L1.80496 15.5798C1.27319 15.3902 0.813698 15.0398 0.490266 14.5773C0.166834 14.1148 -0.00448685 13.5631 8.93443e-05 12.9989C0.00466554 12.4347 0.184911 11.8859 0.515803 11.4287C0.846694 10.9715 1.31181 10.6286 1.84659 10.4476L5.42111 9.29062C6.32143 8.99204 7.13907 8.48645 7.80825 7.81453C8.47743 7.14261 8.97948 6.32312 9.274 5.42196L10.4499 1.8055C10.6372 1.27512 10.9858 0.817536 11.4437 0.495148Z" fill="#9547A5"/>
</svg>
